<svg width="267" height="224" viewBox="0 0 267 224" fill="none" xmlns="http://www.w3.org/2000/svg">
<path d="M3.52272 214.181V185.09H7.04543V211.056H20.5681V214.181H3.52272ZM49.4352 199.635C49.4352 202.704 48.8812 205.355 47.7733 207.59C46.6653 209.825 45.1455 211.548 43.2136 212.76C41.2818 213.973 39.0754 214.579 36.5943 214.579C34.1133 214.579 31.9069 213.973 29.975 212.76C28.0432 211.548 26.5234 209.825 25.4154 207.59C24.3075 205.355 23.7535 202.704 23.7535 199.635C23.7535 196.567 24.3075 193.916 25.4154 191.681C26.5234 189.446 28.0432 187.723 29.975 186.511C31.9069 185.298 34.1133 184.692 36.5943 184.692C39.0754 184.692 41.2818 185.298 43.2136 186.511C45.1455 187.723 46.6653 189.446 47.7733 191.681C48.8812 193.916 49.4352 196.567 49.4352 199.635ZM46.0261 199.635C46.0261 197.117 45.6047 194.991 44.7619 193.258C43.9286 191.525 42.797 190.213 41.3671 189.323C39.9466 188.433 38.3557 187.988 36.5943 187.988C34.833 187.988 33.2373 188.433 31.8074 189.323C30.387 190.213 29.2554 191.525 28.4126 193.258C27.5792 194.991 27.1626 197.117 27.1626 199.635C27.1626 202.154 27.5792 204.28 28.4126 206.013C29.2554 207.746 30.387 209.058 31.8074 209.948C33.2373 210.838 34.833 211.283 36.5943 211.283C38.3557 211.283 39.9466 210.838 41.3671 209.948C42.797 209.058 43.9286 207.746 44.7619 206.013C45.6047 204.28 46.0261 202.154 46.0261 199.635ZM78.7675 194.181H75.2448C75.0365 193.168 74.6719 192.278 74.151 191.511C73.6397 190.743 73.0147 190.1 72.2761 189.579C71.5469 189.048 70.7372 188.651 69.8471 188.386C68.9569 188.12 68.0289 187.988 67.063 187.988C65.3016 187.988 63.706 188.433 62.2761 189.323C60.8556 190.213 59.724 191.525 58.8812 193.258C58.0479 194.991 57.6312 197.117 57.6312 199.635C57.6312 202.154 58.0479 204.28 58.8812 206.013C59.724 207.746 60.8556 209.058 62.2761 209.948C63.706 210.838 65.3016 211.283 67.063 211.283C68.0289 211.283 68.9569 211.151 69.8471 210.885C70.7372 210.62 71.5469 210.227 72.2761 209.706C73.0147 209.176 73.6397 208.528 74.151 207.76C74.6719 206.984 75.0365 206.094 75.2448 205.09H78.7675C78.5024 206.577 78.0194 207.907 77.3187 209.081C76.6179 210.256 75.7467 211.255 74.705 212.079C73.6634 212.893 72.4939 213.513 71.1965 213.939C69.9086 214.366 68.5308 214.579 67.063 214.579C64.582 214.579 62.3755 213.973 60.4437 212.76C58.5119 211.548 56.992 209.825 55.8841 207.59C54.7761 205.355 54.2221 202.704 54.2221 199.635C54.2221 196.567 54.7761 193.916 55.8841 191.681C56.992 189.446 58.5119 187.723 60.4437 186.511C62.3755 185.298 64.582 184.692 67.063 184.692C68.5308 184.692 69.9086 184.905 71.1965 185.332C72.4939 185.758 73.6634 186.383 74.705 187.207C75.7467 188.021 76.6179 189.015 77.3187 190.19C78.0194 191.354 78.5024 192.685 78.7675 194.181ZM85.6531 214.181H81.96L92.6418 185.09H96.2781L106.96 214.181H103.267L94.5736 189.692H94.3463L85.6531 214.181ZM87.0168 202.817H101.903V205.942H87.0168V202.817ZM111.491 214.181V185.09H115.014V211.056H128.537V214.181H111.491ZM168.65 194.181H165.127C164.919 193.168 164.554 192.278 164.034 191.511C163.522 190.743 162.897 190.1 162.159 189.579C161.429 189.048 160.62 188.651 159.73 188.386C158.839 188.12 157.911 187.988 156.946 187.988C155.184 187.988 153.589 188.433 152.159 189.323C150.738 190.213 149.607 191.525 148.764 193.258C147.93 194.991 147.514 197.117 147.514 199.635C147.514 202.154 147.93 204.28 148.764 206.013C149.607 207.746 150.738 209.058 152.159 209.948C153.589 210.838 155.184 211.283 156.946 211.283C157.911 211.283 158.839 211.151 159.73 210.885C160.62 210.62 161.429 210.227 162.159 209.706C162.897 209.176 163.522 208.528 164.034 207.76C164.554 206.984 164.919 206.094 165.127 205.09H168.65C168.385 206.577 167.902 207.907 167.201 209.081C166.5 210.256 165.629 211.255 164.588 212.079C163.546 212.893 162.376 213.513 161.079 213.939C159.791 214.366 158.413 214.579 156.946 214.579C154.464 214.579 152.258 213.973 150.326 212.76C148.394 211.548 146.875 209.825 145.767 207.59C144.659 205.355 144.105 202.704 144.105 199.635C144.105 196.567 144.659 193.916 145.767 191.681C146.875 189.446 148.394 187.723 150.326 186.511C152.258 185.298 154.464 184.692 156.946 184.692C158.413 184.692 159.791 184.905 161.079 185.332C162.376 185.758 163.546 186.383 164.588 187.207C165.629 188.021 166.5 189.015 167.201 190.19C167.902 191.354 168.385 192.685 168.65 194.181ZM175.536 214.181H171.843L182.524 185.09H186.161L196.842 214.181H193.149L184.456 189.692H184.229L175.536 214.181ZM176.899 202.817H191.786V205.942H176.899V202.817ZM201.374 214.181V185.09H218.817V188.215H204.896V198.045H217.51V201.17H204.896V214.181H201.374ZM224.85 214.181V185.09H242.407V188.215H228.373V198.045H241.498V201.17H228.373V211.056H242.634V214.181H224.85Z" fill="#6F4337"/>
<path d="M97.9587 63.0262C126.53 50.094 152.38 35.2692 152.38 35.2692" stroke="#6F4337" stroke-width="6.29291"/>
<path d="M18.917 86.682C92.9629 251.778 184.702 85.6782 184.702 85.6782L18.917 86.682Z" stroke="black" stroke-width="5.854"/>
<path d="M112.584 72.1733C197.958 34.9537 173.468 3.41166 173.468 3.41166C173.468 3.41166 132.992 8.14301 115.986 36.8463C98.979 65.5495 80.2716 60.1873 98.6389 65.5495C117.006 70.9116 117.006 70.2808 117.006 70.2808" stroke="#6F4337" stroke-width="6.32156"/>
<path d="M18.8545 86.3981C93.3333 252.46 185.609 85.3884 185.609 85.3884L18.8545 86.3981Z" stroke="#6F4337" stroke-width="5.91482"/>
<path d="M172.913 106.797C207.225 175.867 138.327 141.013 138.327 141.013" stroke="#6F4337" stroke-width="5.854"/>
</svg>
